<svg width="24" height="24" viewBox="0 0 24 24" fill="none" xmlns="http://www.w3.org/2000/svg">
<path d="M3 10V5M3 5H8M3 5L7.5 9.5M21 14V19M21 19H16M21 19L16.5 14.5" stroke="#CF2727" stroke-width="2" stroke-linecap="round" stroke-linejoin="round"/>
<path d="M20 10C19.1432 7.61114 17.4727 5.58983 15.2673 4.27042C13.0618 2.95101 10.4632 2.4184 7.8994 2.7607C5.33559 3.103 2.97341 4.2985 1.19995 6.14725" stroke="#CF2727" stroke-width="2" stroke-linecap="round" stroke-linejoin="round"/>
<path d="M4 14C4.85684 16.3889 6.52733 18.4102 8.73273 19.7296C10.9381 21.049 13.5368 21.5816 16.1006 21.2393C18.6644 20.897 21.0266 19.7015 22.8001 17.8528" stroke="#CF2727" stroke-width="2" stroke-linecap="round" stroke-linejoin="round"/>
</svg>
