<svg width="820" height="180" viewBox="0 0 820 180" fill="none" xmlns="http://www.w3.org/2000/svg">
<rect width="820" height="180" fill="url(#paint0_linear)"/>
<g opacity="0.2">
<path d="M0 20H820M0 40H820M0 60H820M0 80H820M0 100H820M0 120H820M0 140H820M0 160H820" stroke="#76B900" stroke-width="1"/>
<path d="M20 0V180M40 0V180M60 0V180M80 0V180M100 0V180M120 0V180M140 0V180M160 0V180" stroke="#76B900" stroke-width="1"/>
</g>
<circle cx="410" cy="90" r="200" fill="url(#paint1_radial)" opacity="0.15"/>
<defs>
<linearGradient id="paint0_linear" x1="0" y1="0" x2="820" y2="180" gradientUnits="userSpaceOnUse">
<stop stop-color="#1A1A1A"/>
<stop offset="1" stop-color="#000000"/>
</linearGradient>
<radialGradient id="paint1_radial" cx="0" cy="0" r="1" gradientUnits="userSpaceOnUse" gradientTransform="translate(410 90) rotate(90) scale(200)">
<stop stop-color="#76B900"/>
<stop offset="1" stop-color="#76B900" stop-opacity="0"/>
</radialGradient>
</defs>
</svg>
