<?xml version="1.0" standalone="no"?>
<!DOCTYPE svg PUBLIC "-//W3C//DTD SVG 20010904//EN"
 "http://www.w3.org/TR/2001/REC-SVG-20010904/DTD/svg10.dtd">
<svg version="1.0" xmlns="http://www.w3.org/2000/svg"
 width="980.000000pt" height="980.000000pt" viewBox="0 0 980.000000 980.000000"
 preserveAspectRatio="xMidYMid meet">

<g transform="translate(0.000000,980.000000) scale(0.100000,-0.100000)"
fill="#000000" stroke="none">
<path d="M6010 7145 c-701 -101 -1276 -184 -1277 -184 -2 -1 -3 -438 -3 -971
l0 -970 1298 2 1297 3 3 1153 2 1152 -22 -1 c-13 -1 -597 -84 -1298 -184z"/>
<path d="M3480 6785 c-509 -74 -944 -136 -968 -140 l-42 -6 2 -807 3 -807
1000 0 1000 0 3 948 2 947 -37 -1 c-21 -1 -454 -61 -963 -134z"/>
<path d="M2477 4773 c-4 -3 -7 -372 -7 -820 0 -643 3 -813 13 -813 6 -1 457
-63 1002 -138 l990 -138 3 945 c1 521 0 952 -3 959 -3 9 -212 12 -998 12 -547
0 -997 -3 -1000 -7z"/>
<path d="M4730 3805 l0 -975 23 -4 c24 -6 2557 -356 2570 -356 4 0 6 519 5
1153 l-3 1152 -1297 3 -1298 2 0 -975z"/>
</g>
</svg>
